<?xml version="1.0" encoding="UTF-8"?>
<svg id="Layer_2" data-name="Layer 2" xmlns="http://www.w3.org/2000/svg" viewBox="0 0 100.53 67.24">
  <defs>
    <style>
      .cls-1 {
        fill: #fff;
      }

      .cls-2 {
        stroke: #fa0;
        stroke-width: 5.22px;
      }

      .cls-2, .cls-3 {
        fill: none;
        stroke-linecap: round;
        stroke-linejoin: round;
      }

      .cls-3 {
        stroke: #ffa300;
        stroke-width: 2.98px;
      }
    </style>
  </defs>
  <g id="Layer_1-2" data-name="Layer 1">
    <g>
      <g>
        <path class="cls-1" d="M17.75,54.34c.1,.18,.15,.34,.17,.49,.02,.14,.03,.35,.03,.63v9.99c0,.83-.23,1.31-.68,1.46-.23,.07-.52,.11-.86,.11s-.62-.03-.83-.09c-.2-.06-.36-.13-.47-.22-.11-.08-.19-.2-.25-.36-.06-.2-.09-.52-.09-.94v-6.03c-.3,.37-.74,.96-1.31,1.77s-.94,1.32-1.1,1.52c-.16,.21-.26,.35-.32,.42s-.21,.19-.44,.32c-.23,.14-.49,.21-.76,.21s-.52-.06-.74-.19c-.22-.13-.38-.25-.48-.37l-.14-.2c-.24-.3-.71-.94-1.42-1.92-.71-.98-1.09-1.5-1.15-1.58v6.07c0,.28,0,.48-.03,.62s-.07,.29-.17,.46c-.18,.32-.65,.49-1.4,.49s-1.19-.16-1.37-.49c-.1-.17-.15-.32-.17-.47-.02-.14-.03-.36-.03-.65v-9.99c0-.28,0-.48,.03-.62,.02-.14,.07-.3,.17-.48,.18-.31,.65-.47,1.4-.47,.32,0,.6,.04,.84,.12,.23,.08,.39,.16,.46,.24l.11,.11,4.09,5.36c2.04-2.7,3.4-4.48,4.09-5.35,.2-.32,.69-.49,1.45-.49s1.23,.16,1.4,.49Z"/>
        <path class="cls-1" d="M22.57,63.84h5.54c.28,0,.48,0,.62,.03,.14,.02,.3,.08,.48,.17,.32,.17,.49,.64,.49,1.4,0,.84-.22,1.33-.67,1.48-.2,.07-.52,.11-.94,.11h-7.13c-.84,0-1.33-.23-1.48-.68-.07-.19-.11-.5-.11-.92v-10.01c0-.61,.11-1.03,.34-1.25,.23-.22,.66-.33,1.3-.33h7.09c.28,0,.48,0,.62,.03,.14,.02,.3,.08,.48,.17,.32,.17,.49,.64,.49,1.4,0,.84-.22,1.33-.67,1.48-.2,.07-.52,.11-.94,.11h-5.53v1.82h3.56c.28,0,.48,0,.62,.03,.14,.02,.3,.08,.48,.17,.32,.17,.49,.64,.49,1.4,0,.84-.23,1.33-.68,1.48-.2,.07-.52,.11-.94,.11h-3.53v1.82Z"/>
        <path class="cls-1" d="M44.89,54.34c.1,.18,.15,.34,.17,.49,.02,.14,.03,.35,.03,.63v9.99c0,.83-.23,1.31-.68,1.46-.23,.07-.52,.11-.86,.11s-.62-.03-.83-.09c-.2-.06-.36-.13-.47-.22-.11-.08-.19-.2-.25-.36-.06-.2-.09-.52-.09-.94v-6.03c-.3,.37-.74,.96-1.31,1.77s-.94,1.32-1.1,1.52c-.16,.21-.26,.35-.32,.42s-.21,.19-.44,.32c-.23,.14-.49,.21-.76,.21s-.52-.06-.74-.19c-.22-.13-.38-.25-.48-.37l-.14-.2c-.24-.3-.71-.94-1.42-1.92-.71-.98-1.09-1.5-1.15-1.58v6.07c0,.28,0,.48-.03,.62s-.07,.29-.17,.46c-.18,.32-.65,.49-1.4,.49s-1.19-.16-1.37-.49c-.1-.17-.15-.32-.17-.47-.02-.14-.03-.36-.03-.65v-9.99c0-.28,0-.48,.03-.62,.02-.14,.07-.3,.17-.48,.18-.31,.65-.47,1.4-.47,.32,0,.6,.04,.84,.12,.23,.08,.39,.16,.46,.24l.11,.11,4.09,5.36c2.04-2.7,3.4-4.48,4.09-5.35,.2-.32,.69-.49,1.45-.49s1.23,.16,1.4,.49Z"/>
        <path class="cls-1" d="M52.72,53.67c1.78,0,3.32,.64,4.63,1.93,1.31,1.28,1.96,2.88,1.96,4.78s-.62,3.52-1.87,4.86-2.78,2.01-4.61,2.01-3.38-.66-4.65-1.98c-1.28-1.32-1.92-2.89-1.92-4.72,0-1,.18-1.93,.54-2.8,.36-.87,.84-1.6,1.44-2.19,.6-.59,1.29-1.05,2.07-1.39,.78-.34,1.58-.5,2.41-.5Zm-3.28,6.79c0,1.07,.34,1.94,1.03,2.6s1.46,1,2.31,1,1.62-.32,2.3-.97c.68-.65,1.03-1.52,1.03-2.61s-.35-1.97-1.04-2.63-1.46-.99-2.31-.99-1.62,.33-2.3,1-1.03,1.53-1.03,2.6Z"/>
      </g>
      <g>
        <path class="cls-1" d="M64.59,62.12c0,.51,.17,.91,.5,1.19s.69,.42,1.07,.42,.73-.11,1.06-.33c.33-.22,.6-.33,.8-.33,.36,0,.8,.32,1.31,.95,.28,.35,.41,.66,.41,.94,0,.46-.33,.88-.99,1.28-.68,.48-1.52,.72-2.52,.72-1.12,0-2.19-.4-3.22-1.21-.49-.38-.89-.9-1.21-1.54-.31-.64-.47-1.35-.47-2.12s.16-1.48,.47-2.11,.71-1.14,1.21-1.52c1-.79,2.06-1.19,3.19-1.19,.46,0,.9,.06,1.33,.19s.75,.25,.95,.37l.29,.18c.22,.14,.38,.26,.5,.34,.31,.24,.47,.51,.47,.82s-.13,.65-.38,1.04c-.43,.66-.85,.99-1.24,.99-.23,0-.55-.13-.97-.4-.22-.2-.53-.31-.93-.31s-.78,.14-1.12,.43c-.35,.29-.52,.69-.52,1.2Z"/>
        <path class="cls-1" d="M77.08,58.39c.07-.67,.55-1.01,1.42-1.01,.47,0,.82,.04,1.04,.11s.39,.2,.48,.38c.09,.18,.14,.34,.16,.48,.02,.14,.03,.35,.03,.62v6.3c0,.28,0,.48-.03,.62-.02,.14-.07,.3-.15,.48-.17,.31-.58,.47-1.23,.47s-1.09-.08-1.31-.24-.35-.4-.39-.71c-.44,.64-1.19,.95-2.22,.95s-2-.47-2.89-1.42c-.89-.95-1.33-2.05-1.33-3.3s.45-2.35,1.34-3.29c.89-.94,1.88-1.41,2.94-1.41,.41,0,.78,.07,1.12,.22,.34,.14,.57,.28,.7,.41,.13,.13,.24,.25,.32,.37Zm-3.28,3.74c0,.4,.16,.75,.47,1.07,.31,.32,.69,.48,1.13,.48s.81-.16,1.11-.49c.29-.32,.44-.68,.44-1.07s-.14-.75-.42-1.09c-.28-.34-.66-.5-1.13-.5s-.86,.17-1.15,.5c-.29,.34-.44,.7-.44,1.1Z"/>
        <path class="cls-1" d="M88.09,57.49c.23,.07,.42,.2,.57,.37s.23,.45,.23,.84-.11,.8-.34,1.26-.56,.68-.99,.68c-.22,0-.42-.05-.62-.14-.2-.1-.46-.14-.78-.14s-.63,.11-.91,.34c-.28,.23-.42,.5-.42,.83v3.78c0,.28,0,.48-.03,.62-.02,.14-.07,.3-.17,.48-.18,.31-.65,.47-1.4,.47-.58,0-.99-.1-1.24-.31-.19-.17-.3-.43-.32-.77v-6.84c0-.28,0-.48,.03-.62s.07-.29,.15-.46c.17-.32,.64-.49,1.4-.49,.72,0,1.17,.14,1.35,.41,.13,.19,.2,.39,.2,.59,.06-.08,.15-.19,.26-.31,.11-.12,.36-.28,.73-.49s.7-.31,.98-.31,.52,.02,.71,.04c.19,.03,.4,.08,.63,.15Z"/>
        <path class="cls-1" d="M95.7,53.43c.09-.17,.25-.3,.48-.37,.23-.07,.53-.11,.91-.11s.68,.04,.91,.11c.23,.07,.39,.2,.48,.38,.09,.18,.14,.34,.16,.48,.02,.14,.03,.35,.03,.62v10.75c0,.28,0,.48-.03,.62s-.08,.29-.17,.46c-.18,.32-.69,.49-1.52,.49s-1.3-.29-1.4-.88c-.5,.58-1.21,.86-2.11,.86-1.08,0-2.06-.47-2.95-1.41-.89-.94-1.33-2.04-1.33-3.29s.45-2.35,1.34-3.3,1.88-1.42,2.94-1.42c.89,0,1.58,.3,2.07,.9v-3.78c0-.28,0-.48,.03-.62s.07-.29,.16-.47Zm-2.92,9.78c.31,.32,.69,.49,1.13,.49s.81-.16,1.11-.49c.29-.32,.44-.68,.44-1.07s-.14-.75-.42-1.09c-.28-.33-.66-.5-1.14-.5s-.86,.17-1.15,.5-.43,.69-.43,1.09,.16,.76,.47,1.08Z"/>
      </g>
      <g>
        <path class="cls-1" d="M42.27,22.44c0,10.95-8.88,19.83-19.83,19.83S2.61,33.39,2.61,22.44,11.49,2.61,22.44,2.61s19.83,8.88,19.83,19.83Z"/>
        <path class="cls-1" d="M97.92,22.44c0,10.95-8.88,19.83-19.83,19.83s-19.83-8.88-19.83-19.83S67.14,2.61,78.09,2.61s19.83,8.88,19.83,19.83Z"/>
        <path class="cls-2" d="M42.27,22.44c0,10.95-8.88,19.83-19.83,19.83S2.61,33.39,2.61,22.44,11.49,2.61,22.44,2.61s19.83,8.88,19.83,19.83Z"/>
        <path class="cls-2" d="M97.92,22.44c0,10.95-8.88,19.83-19.83,19.83s-19.83-8.88-19.83-19.83S67.14,2.61,78.09,2.61s19.83,8.88,19.83,19.83Z"/>
        <path class="cls-2" d="M42.48,21.82c0-4.42,3.5-7.99,7.81-7.99s7.81,3.58,7.81,7.99"/>
        <path class="cls-3" d="M72.35,12.19c1.7-.95,3.65-1.49,5.74-1.49,6.49,0,11.75,5.26,11.75,11.75,0,2.86-1.02,5.49-2.73,7.53"/>
        <path class="cls-3" d="M16.66,12.19c1.7-.95,3.65-1.49,5.74-1.49,4.2,0,7.89,2.21,9.97,5.53"/>
        <path class="cls-3" d="M34.14,22.44c0,2.86-1.02,5.49-2.73,7.53-2.16,2.58-5.4,4.22-9.02,4.22"/>
      </g>
    </g>
  </g>
</svg>